<svg width="28" height="28" viewBox="0 0 28 28" fill="none" xmlns="http://www.w3.org/2000/svg">
<g id="tabler:xbox-x">
<path id="Vector" d="M10.5 9.33333L17.5 18.6667M17.5 9.33333L10.5 18.6667M14 24.5C16.7848 24.5 19.4555 23.3938 21.4246 21.4246C23.3938 19.4555 24.5 16.7848 24.5 14C24.5 11.2152 23.3938 8.54451 21.4246 6.57538C19.4555 4.60625 16.7848 3.5 14 3.5C11.2152 3.5 8.54451 4.60625 6.57538 6.57538C4.60625 8.54451 3.5 11.2152 3.5 14C3.5 16.7848 4.60625 19.4555 6.57538 21.4246C8.54451 23.3938 11.2152 24.5 14 24.5Z" stroke="black" stroke-width="2" stroke-linecap="round" stroke-linejoin="round"/>
</g>
</svg>
